<svg width="22" height="22" viewBox="0 0 22 22" fill="none" xmlns="http://www.w3.org/2000/svg">
<path d="M10.01 18.7H11.935V17.325C12.8517 17.16 13.64 16.8025 14.3 16.2525C14.96 15.7025 15.29 14.8867 15.29 13.805C15.29 13.035 15.07 12.3292 14.63 11.6875C14.19 11.0458 13.31 10.4867 11.99 10.01C10.89 9.64333 10.1292 9.3225 9.7075 9.0475C9.28583 8.7725 9.075 8.39667 9.075 7.92C9.075 7.44333 9.24458 7.0675 9.58375 6.7925C9.92292 6.5175 10.4133 6.38 11.055 6.38C11.6417 6.38 12.1 6.52208 12.43 6.80625C12.76 7.09042 12.9983 7.44333 13.145 7.865L14.905 7.15C14.7033 6.50833 14.3321 5.94917 13.7913 5.4725C13.2504 4.99583 12.65 4.73 11.99 4.675V3.3H10.065V4.675C9.14833 4.87667 8.43333 5.28 7.92 5.885C7.40667 6.49 7.15 7.16833 7.15 7.92C7.15 8.78167 7.40208 9.47833 7.90625 10.01C8.41042 10.5417 9.20333 11 10.285 11.385C11.44 11.8067 12.2421 12.1825 12.6913 12.5125C13.1404 12.8425 13.365 13.2733 13.365 13.805C13.365 14.41 13.1496 14.8546 12.7188 15.1388C12.2879 15.4229 11.77 15.565 11.165 15.565C10.56 15.565 10.0238 15.3771 9.55625 15.0013C9.08875 14.6254 8.745 14.0617 8.525 13.31L6.71 14.025C6.96667 14.905 7.36542 15.6154 7.90625 16.1562C8.44708 16.6971 9.14833 17.0683 10.01 17.27V18.7ZM11 22C9.47833 22 8.04833 21.7113 6.71 21.1338C5.37167 20.5562 4.2075 19.7725 3.2175 18.7825C2.2275 17.7925 1.44375 16.6283 0.86625 15.29C0.28875 13.9517 0 12.5217 0 11C0 9.47833 0.28875 8.04833 0.86625 6.71C1.44375 5.37167 2.2275 4.2075 3.2175 3.2175C4.2075 2.2275 5.37167 1.44375 6.71 0.86625C8.04833 0.28875 9.47833 0 11 0C12.5217 0 13.9517 0.28875 15.29 0.86625C16.6283 1.44375 17.7925 2.2275 18.7825 3.2175C19.7725 4.2075 20.5562 5.37167 21.1338 6.71C21.7113 8.04833 22 9.47833 22 11C22 12.5217 21.7113 13.9517 21.1338 15.29C20.5562 16.6283 19.7725 17.7925 18.7825 18.7825C17.7925 19.7725 16.6283 20.5562 15.29 21.1338C13.9517 21.7113 12.5217 22 11 22ZM11 19.8C13.4567 19.8 15.5375 18.9475 17.2425 17.2425C18.9475 15.5375 19.8 13.4567 19.8 11C19.8 8.54333 18.9475 6.4625 17.2425 4.7575C15.5375 3.0525 13.4567 2.2 11 2.2C8.54333 2.2 6.4625 3.0525 4.7575 4.7575C3.0525 6.4625 2.2 8.54333 2.2 11C2.2 13.4567 3.0525 15.5375 4.7575 17.2425C6.4625 18.9475 8.54333 19.8 11 19.8Z" fill="#1C1B1F"/>
</svg>
